<svg aria-hidden="true" style="position: absolute; width: 0; height: 0; overflow: hidden;" version="1.1" xmlns="http://www.w3.org/2000/svg" xmlns:xlink="http://www.w3.org/1999/xlink">
<defs>
<symbol id="icon-logo-atd" viewBox="0 0 251 32">
<path fill="#fff" style="fill: var(--color1, #fff)" d="M66.858 23.577h-12.426l-2.37 5.683h-6.347l11.929-26.519h6.118l11.967 26.519h-6.499l-2.371-5.683zM64.908 18.917l-4.244-10.153-4.244 10.153h8.488z"></path>
<path fill="#fff" style="fill: var(--color1, #fff)" d="M89.836 29.714c-3.823 0-6.806-1.048-8.947-3.144-2.116-2.096-3.174-5.089-3.174-8.979v-14.851h6.194v14.623c0 4.748 1.988 7.122 5.965 7.122 1.937 0 3.415-0.568 4.435-1.705 1.019-1.162 1.529-2.968 1.529-5.418v-14.623h6.118v14.851c0 3.89-1.070 6.882-3.211 8.979-2.116 2.096-5.085 3.144-8.909 3.144z"></path>
<path fill="#fff" style="fill: var(--color1, #fff)" d="M113.173 7.741h-8.565v-5.001h23.323v5.001h-8.565v21.518h-6.194v-21.518z"></path>
<path fill="#fff" style="fill: var(--color1, #fff)" d="M143.852 29.714c-2.778 0-5.289-0.594-7.532-1.781-2.218-1.187-3.964-2.816-5.238-4.887-1.249-2.096-1.874-4.445-1.874-7.047s0.625-4.938 1.874-7.009c1.274-2.096 3.021-3.738 5.238-4.925 2.243-1.187 4.754-1.781 7.532-1.781s5.276 0.594 7.494 1.781c2.218 1.187 3.963 2.829 5.238 4.925 1.274 2.071 1.911 4.407 1.911 7.009s-0.637 4.95-1.911 7.047c-1.275 2.071-3.021 3.7-5.238 4.887s-4.715 1.781-7.494 1.781zM143.852 24.486c1.58 0 3.007-0.354 4.282-1.061 1.274-0.732 2.269-1.743 2.982-3.031 0.739-1.288 1.109-2.753 1.109-4.395s-0.37-3.107-1.109-4.395c-0.714-1.288-1.708-2.286-2.982-2.993-1.275-0.732-2.702-1.099-4.282-1.099s-3.008 0.366-4.282 1.099c-1.274 0.707-2.281 1.705-3.021 2.993-0.714 1.288-1.071 2.753-1.071 4.395s0.357 3.107 1.071 4.395c0.739 1.288 1.746 2.298 3.021 3.031 1.274 0.707 2.702 1.061 4.282 1.061z"></path>
<path fill="#fff" style="fill: var(--color1, #fff)" d="M163.151 2.74h12.158c2.906 0 5.467 0.556 7.685 1.667 2.243 1.086 3.977 2.627 5.2 4.622 1.249 1.995 1.873 4.319 1.873 6.971s-0.625 4.976-1.873 6.971c-1.223 1.995-2.957 3.549-5.2 4.66-2.218 1.086-4.779 1.629-7.685 1.629h-12.158v-26.519zM175.003 24.221c2.676 0 4.805-0.732 6.385-2.197 1.606-1.49 2.409-3.498 2.409-6.024s-0.803-4.521-2.409-5.986c-1.581-1.49-3.709-2.235-6.385-2.235h-5.659v16.442h5.659z"></path>
<path fill="#fff" style="fill: var(--color1, #fff)" d="M207.7 29.714c-2.778 0-5.289-0.594-7.532-1.781-2.218-1.187-3.963-2.816-5.238-4.887-1.249-2.096-1.873-4.445-1.873-7.047s0.625-4.938 1.873-7.009c1.275-2.096 3.021-3.738 5.238-4.925 2.243-1.187 4.754-1.781 7.532-1.781s5.277 0.594 7.494 1.781c2.217 1.187 3.963 2.829 5.238 4.925 1.275 2.071 1.912 4.407 1.912 7.009s-0.637 4.95-1.912 7.047c-1.274 2.071-3.021 3.7-5.238 4.887s-4.716 1.781-7.494 1.781zM207.7 24.486c1.581 0 3.008-0.354 4.282-1.061 1.275-0.732 2.269-1.743 2.982-3.031 0.739-1.288 1.109-2.753 1.109-4.395s-0.37-3.107-1.109-4.395c-0.714-1.288-1.707-2.286-2.982-2.993-1.274-0.732-2.702-1.099-4.282-1.099s-3.007 0.366-4.282 1.099c-1.274 0.707-2.281 1.705-3.021 2.993-0.714 1.288-1.070 2.753-1.070 4.395s0.357 3.107 1.070 4.395c0.739 1.288 1.746 2.298 3.021 3.031 1.275 0.707 2.702 1.061 4.282 1.061z"></path>
<path fill="#fff" style="fill: var(--color1, #fff)" d="M239.807 29.714c-2.727 0-5.2-0.581-7.418-1.743-2.192-1.187-3.925-2.816-5.199-4.887-1.249-2.096-1.874-4.458-1.874-7.084s0.625-4.976 1.874-7.047c1.274-2.096 3.007-3.725 5.199-4.887 2.218-1.187 4.703-1.781 7.456-1.781 2.319 0 4.41 0.404 6.27 1.212 1.886 0.808 3.467 1.97 4.741 3.485l-3.977 3.637c-1.81-2.071-4.053-3.107-6.729-3.107-1.657 0-3.135 0.366-4.435 1.099-1.3 0.707-2.32 1.705-3.059 2.993-0.714 1.288-1.071 2.753-1.071 4.395s0.357 3.107 1.071 4.395c0.739 1.288 1.759 2.298 3.059 3.031 1.3 0.707 2.778 1.061 4.435 1.061 2.677 0 4.919-1.048 6.729-3.144l3.977 3.637c-1.274 1.541-2.855 2.715-4.741 3.523s-3.989 1.212-6.309 1.212z"></path>
<path fill="#f85a00" style="fill: var(--color2, #f85a00)" d="M8.278 21.486c1.45 0 2.625 1.175 2.625 2.625v7.889h9.208v-10.514l0-6.78c0-1.45-1.175-2.625-2.625-2.625h-17.486v9.405h8.278z"></path>
<path fill="#fff" style="fill: var(--color1, #fff)" d="M23.722 10.514c-1.45 0-2.625-1.175-2.625-2.625v-7.889h-9.208v10.514l-0 6.781c0 1.45 1.175 2.625 2.625 2.625h17.486v-9.405h-8.278z"></path>
</symbol>
<symbol id="icon-burger-menu" viewBox="0 0 36 32">
<path stroke-linejoin="miter" stroke-linecap="round" stroke-miterlimit="4" stroke-width="3.8788" d="M1.939 3.879h32"></path>
<path stroke-linejoin="miter" stroke-linecap="round" stroke-miterlimit="4" stroke-width="3.8788" d="M1.939 15.515h32"></path>
<path stroke-linejoin="miter" stroke-linecap="round" stroke-miterlimit="4" stroke-width="3.8788" d="M1.939 27.151h32"></path>
</symbol>
<symbol id="icon-back" viewBox="0 0 36 32">
<path d="M33.939 17.455c1.071 0 1.939-0.868 1.939-1.939s-0.868-1.939-1.939-1.939v3.879zM0.568 14.144c-0.757 0.757-0.757 1.985 0 2.743l12.342 12.342c0.757 0.757 1.985 0.757 2.743 0s0.757-1.985 0-2.743l-10.971-10.971 10.971-10.971c0.757-0.757 0.757-1.985 0-2.743s-1.985-0.757-2.743 0l-12.342 12.342zM33.939 13.576h-32v3.879h32v-3.879z"></path>
</symbol>
<symbol id="icon-close-button" viewBox="0 0 32 32">
<path stroke-linejoin="miter" stroke-linecap="round" stroke-miterlimit="4" stroke-width="3.8788" d="M4.848 3.879l22.627 22.627"></path>
<path stroke-linejoin="miter" stroke-linecap="round" stroke-miterlimit="4" stroke-width="3.8788" d="M4.848 27.476l22.627-22.627"></path>
</symbol>
<symbol id="icon-hide-arrow" viewBox="0 0 32 32">
<path d="M21.392 16.544c0.568-0.568 0.568-1.489 0-2.057l-9.257-9.257c-0.568-0.568-1.489-0.568-2.057 0s-0.568 1.489 0 2.057l8.228 8.228-8.228 8.228c-0.568 0.568-0.568 1.489 0 2.057s1.489 0.568 2.057 0l9.257-9.257zM19.394 16.97h0.97v-2.909h-0.97v2.909z"></path>
</symbol>
<symbol id="icon-poland" viewBox="0 0 46 32">
<path fill="#dd2525" style="fill: var(--color2, #dd2525)" d="M5.161 0.516h36.129c2.85 0 5.161 2.311 5.161 5.161v20.645c0 2.851-2.311 5.161-5.161 5.161h-36.129c-2.85 0-5.161-2.311-5.161-5.161v-20.645c0-2.85 2.311-5.161 5.161-5.161z"></path>
<path fill="#fff" style="fill: var(--color1, #fff)" d="M0 5.677c0-2.85 2.311-5.161 5.161-5.161h36.129c2.85 0 5.161 2.311 5.161 5.161v10.323h-46.452v-10.323z"></path>
</symbol>
<symbol id="icon-ukraine" viewBox="0 0 46 32">
<path fill="#edd603" style="fill: var(--color4, #edd603)" d="M5.161 0.516h36.129c2.85 0 5.161 2.311 5.161 5.161v20.645c0 2.851-2.311 5.161-5.161 5.161h-36.129c-2.85 0-5.161-2.311-5.161-5.161v-20.645c0-2.85 2.311-5.161 5.161-5.161z"></path>
<path fill="#066ccb" style="fill: var(--color3, #066ccb)" d="M0 5.677c0-2.85 2.311-5.161 5.161-5.161h36.129c2.85 0 5.161 2.311 5.161 5.161v10.323h-46.452v-10.323z"></path>
</symbol>
<symbol id="icon-usa" viewBox="0 0 46 32">
<path fill="#fff" style="fill: var(--color1, #fff)" d="M5.161 0.516h36.129c2.85 0 5.161 2.311 5.161 5.161v20.645c0 2.851-2.311 5.161-5.161 5.161h-36.129c-2.85 0-5.161-2.311-5.161-5.161v-20.645c0-2.85 2.311-5.161 5.161-5.161z"></path>
<path fill="#dd2525" style="fill: var(--color2, #dd2525)" d="M0 5.677c0-2.85 2.311-5.161 5.161-5.161h36.129c2.85 0 5.161 2.311 5.161 5.161h-46.452z"></path>
<path fill="#dd2525" style="fill: var(--color2, #dd2525)" d="M0 21.161h46.452v5.161h-46.452v-5.161z"></path>
<path fill="#dd2525" style="fill: var(--color2, #dd2525)" d="M0 10.839h46.452v5.161h-46.452v-5.161z"></path>
<path fill="#066ccb" style="fill: var(--color3, #066ccb)" d="M0 5.677c0-2.85 2.311-5.161 5.161-5.161h18.581v15.484h-23.742v-10.323z"></path>
<path fill="#fff" style="fill: var(--color1, #fff)" d="M4.547 2.883c0.031-0.095 0.165-0.095 0.196 0l0.226 0.696c0.014 0.043 0.053 0.071 0.098 0.071h0.732c0.1 0 0.142 0.128 0.061 0.187l-0.592 0.43c-0.036 0.026-0.051 0.073-0.037 0.115l0.226 0.696c0.031 0.095-0.078 0.174-0.159 0.115l-0.592-0.43c-0.036-0.026-0.085-0.026-0.121 0l-0.592 0.43c-0.081 0.059-0.19-0.020-0.159-0.115l0.226-0.696c0.014-0.043-0.001-0.089-0.037-0.115l-0.592-0.43c-0.081-0.059-0.039-0.187 0.061-0.187h0.732c0.045 0 0.084-0.029 0.098-0.071l0.226-0.696z"></path>
<path fill="#fff" style="fill: var(--color1, #fff)" d="M4.547 11.141c0.031-0.095 0.165-0.095 0.196 0l0.226 0.696c0.014 0.043 0.053 0.071 0.098 0.071h0.732c0.1 0 0.142 0.128 0.061 0.187l-0.592 0.43c-0.036 0.026-0.051 0.073-0.037 0.115l0.226 0.696c0.031 0.095-0.078 0.174-0.159 0.115l-0.592-0.43c-0.036-0.026-0.085-0.026-0.121 0l-0.592 0.43c-0.081 0.059-0.19-0.020-0.159-0.115l0.226-0.696c0.014-0.043-0.001-0.089-0.037-0.115l-0.592-0.43c-0.081-0.059-0.039-0.187 0.061-0.187h0.732c0.045 0 0.084-0.029 0.098-0.071l0.226-0.696z"></path>
<path fill="#fff" style="fill: var(--color1, #fff)" d="M18.999 2.883c0.031-0.095 0.165-0.095 0.196 0l0.226 0.696c0.014 0.043 0.053 0.071 0.098 0.071h0.732c0.1 0 0.142 0.128 0.061 0.187l-0.592 0.43c-0.036 0.026-0.051 0.073-0.037 0.115l0.226 0.696c0.031 0.095-0.078 0.174-0.159 0.115l-0.592-0.43c-0.036-0.026-0.085-0.026-0.121 0l-0.592 0.43c-0.081 0.059-0.19-0.020-0.159-0.115l0.226-0.696c0.014-0.043-0.001-0.089-0.037-0.115l-0.592-0.43c-0.081-0.059-0.039-0.187 0.061-0.187h0.732c0.045 0 0.084-0.029 0.098-0.071l0.226-0.696z"></path>
<path fill="#fff" style="fill: var(--color1, #fff)" d="M18.999 11.141c0.031-0.095 0.165-0.095 0.196 0l0.226 0.696c0.014 0.043 0.053 0.071 0.098 0.071h0.732c0.1 0 0.142 0.128 0.061 0.187l-0.592 0.43c-0.036 0.026-0.051 0.073-0.037 0.115l0.226 0.696c0.031 0.095-0.078 0.174-0.159 0.115l-0.592-0.43c-0.036-0.026-0.085-0.026-0.121 0l-0.592 0.43c-0.081 0.059-0.19-0.020-0.159-0.115l0.226-0.696c0.014-0.043-0.001-0.089-0.037-0.115l-0.592-0.43c-0.081-0.059-0.039-0.187 0.061-0.187h0.732c0.045 0 0.084-0.029 0.098-0.071l0.226-0.696z"></path>
<path fill="#fff" style="fill: var(--color1, #fff)" d="M11.773 2.883c0.031-0.095 0.165-0.095 0.196 0l0.226 0.696c0.014 0.043 0.053 0.071 0.098 0.071h0.732c0.1 0 0.142 0.128 0.061 0.187l-0.592 0.43c-0.036 0.026-0.051 0.073-0.037 0.115l0.226 0.696c0.031 0.095-0.078 0.174-0.159 0.115l-0.592-0.43c-0.036-0.026-0.085-0.026-0.121 0l-0.592 0.43c-0.081 0.059-0.19-0.020-0.159-0.115l0.226-0.696c0.014-0.043-0.001-0.089-0.037-0.115l-0.592-0.43c-0.081-0.059-0.039-0.187 0.061-0.187h0.732c0.045 0 0.084-0.029 0.098-0.071l0.226-0.696z"></path>
<path fill="#fff" style="fill: var(--color1, #fff)" d="M11.773 11.141c0.031-0.095 0.165-0.095 0.196 0l0.226 0.696c0.014 0.043 0.053 0.071 0.098 0.071h0.732c0.1 0 0.142 0.128 0.061 0.187l-0.592 0.43c-0.036 0.026-0.051 0.073-0.037 0.115l0.226 0.696c0.031 0.095-0.078 0.174-0.159 0.115l-0.592-0.43c-0.036-0.026-0.085-0.026-0.121 0l-0.592 0.43c-0.081 0.059-0.19-0.020-0.159-0.115l0.226-0.696c0.014-0.043-0.001-0.089-0.037-0.115l-0.592-0.43c-0.081-0.059-0.039-0.187 0.061-0.187h0.732c0.045 0 0.084-0.029 0.098-0.071l0.226-0.696z"></path>
<path fill="#fff" style="fill: var(--color1, #fff)" d="M7.644 7.012c0.031-0.095 0.165-0.095 0.196 0l0.226 0.696c0.014 0.043 0.053 0.071 0.098 0.071h0.732c0.1 0 0.142 0.128 0.061 0.187l-0.592 0.43c-0.036 0.026-0.051 0.073-0.037 0.115l0.226 0.696c0.031 0.095-0.078 0.174-0.159 0.115l-0.592-0.43c-0.036-0.026-0.085-0.026-0.121 0l-0.592 0.43c-0.081 0.059-0.19-0.020-0.159-0.115l0.226-0.696c0.014-0.043-0.001-0.089-0.037-0.115l-0.592-0.43c-0.081-0.059-0.039-0.187 0.061-0.187h0.732c0.045 0 0.084-0.029 0.098-0.071l0.226-0.696z"></path>
<path fill="#fff" style="fill: var(--color1, #fff)" d="M15.902 7.012c0.031-0.095 0.165-0.095 0.196 0l0.226 0.696c0.014 0.043 0.053 0.071 0.098 0.071h0.732c0.1 0 0.142 0.128 0.061 0.187l-0.592 0.43c-0.036 0.026-0.051 0.073-0.037 0.115l0.226 0.696c0.031 0.095-0.078 0.174-0.159 0.115l-0.592-0.43c-0.036-0.026-0.085-0.026-0.121 0l-0.592 0.43c-0.081 0.059-0.19-0.020-0.159-0.115l0.226-0.696c0.014-0.043-0.001-0.089-0.037-0.115l-0.592-0.43c-0.081-0.059-0.039-0.187 0.061-0.187h0.732c0.045 0 0.084-0.029 0.098-0.071l0.226-0.696z"></path>
</symbol>
<symbol id="icon-russia" viewBox="0 0 46 32">
<path fill="#fff" style="fill: var(--color1, #fff)" d="M5.161 0.516h36.129c2.85 0 5.161 2.311 5.161 5.161v20.645c0 2.851-2.311 5.161-5.161 5.161h-36.129c-2.85 0-5.161-2.311-5.161-5.161v-20.645c0-2.85 2.311-5.161 5.161-5.161z"></path>
<path fill="#dd2525" style="fill: var(--color2, #dd2525)" d="M0 21.161h46.452v5.161c0 2.85-2.311 5.161-5.161 5.161h-36.129c-2.85 0-5.161-2.311-5.161-5.161v-5.161z"></path>
<path fill="#066ccb" style="fill: var(--color3, #066ccb)" d="M0 10.839h46.452v10.323h-46.452v-10.323z"></path>
</symbol>
</defs>
</svg>
